<?xml version="1.0" encoding="utf-8"?>
<!-- Generator: Adobe Illustrator 19.1.0, SVG Export Plug-In . SVG Version: 6.00 Build 0)  -->
<svg version="1.1" id="Layer_1" xmlns="http://www.w3.org/2000/svg" xmlns:xlink="http://www.w3.org/1999/xlink" x="0px" y="0px"
	 width="1000px" height="1000px" viewBox="0 0 1000 1000" style="enable-background:new 0 0 1000 1000;" xml:space="preserve">
<style type="text/css">
	.st0{fill:#8CC63F;}
	.st1{fill:#749B37;}
	.st2{fill:#D35F00;}
	.st3{fill:#F0FFD9;}
</style>
<g>
	<path class="st0" d="M426,282.7c28.3-46.8,66.4-77.7,66.4-77.7s38.1,30.8,66.4,77.7c20.5-23.1,42.6-42.7,59.4-57.2
		c-37-71.4-125.8-122.7-125.8-122.7s-88.8,51.3-125.8,122.7C383.4,240.1,405.5,259.7,426,282.7z"/>
	<path class="st1" d="M255.6,225.6c39.3,21.2,156.1,63.7,205,147.7c11,18.9,19.7,40.7,26.7,63.3c7.2-21.3,16.4-42.1,27.9-60.2
		c51.3-80.3,172.7-124,215.8-144.8C708.2,155.1,667.2,95,667.2,95s8.2,63.3-24.1,98.2c-11,11.8-49.8,40.7-84.3,79.5
		c-28.3-46.8-66.4-77.7-66.4-77.7s-38.1,30.8-66.4,77.7c-34.5-38.8-73.4-67.7-84.3-79.5C309.3,158.3,317.6,95,317.6,95
		S278.7,151.9,255.6,225.6z"/>
	<path class="st0" d="M802,100.3c0,0-10.5,83-59.9,115.4C715,233.4,572,277.4,515.2,366.4c-11.6,18.1-20.7,38.8-27.9,60.2
		c-7-22.6-15.7-44.5-26.7-63.3C407.4,271.7,273.4,229.4,247,210.4c-48.1-34.7-55.2-118-55.2-118s-89.7,242.6-3.3,397.1
		c11.3,20.3,22.5,38,33.5,53.5h536.8c10-13.4,20.2-28.4,30.5-45.3C881.6,347.3,802,100.3,802,100.3z"/>
	<polygon class="st2" points="783,534 202,534 202,600 252.9,600 334,977 649.5,977 730.7,600 783,600 	"/>
	<polygon class="st3" points="676.6,760.1 639.8,713.1 603.1,760.1 566.4,713.1 529.7,760.1 493,713.1 456.3,760.1 419.6,713.1 
		382.9,760.1 346.2,713.1 309.5,760.1 278.9,721 291,777.1 309.5,800.7 346.2,753.7 382.9,800.7 419.6,753.7 456.3,800.7 493,753.7 
		529.7,800.7 566.4,753.7 603.1,800.7 639.8,753.7 676.6,800.7 691.6,781.4 703.7,725.4 	"/>
</g>
</svg>
